C:\GBW_MyPrograms\KinderuniversiteitApp\Resultaten\Ellis_1010\Kleuter\Kleuter_v3.mot
version=1
nRows=13
nColumns=29
inDegrees=yes
endheader
                time	         pelvis_tilt	           pelvis_tx	           pelvis_ty	       hip_flexion_l	       hip_flexion_r	        knee_angle_l	        knee_angle_r	       ankle_angle_l	       ankle_angle_r	    lumbar_extension	hamstrings_r/activation	bifemsh_r/activation	glut_max_r/activation	iliopsoas_r/activation	rect_fem_r/activation	  vasti_r/activation	gastroc_r/activation	 soleus_r/activation	tib_ant_r/activation	hamstrings_l/activation	bifemsh_l/activation	glut_max_l/activation	iliopsoas_l/activation	rect_fem_l/activation	  vasti_l/activation	gastroc_l/activation	 soleus_l/activation	tib_ant_l/activation	
          0.71804461	          1.35828304	          0.66098945	          0.88969052	        -19.17030472	         24.19395532	        -13.69526959	        -10.78455124	          7.23274063	         -1.52947922	         -7.16553193	          0.10457491	          0.10457492	          0.10457487	          0.10457491	          0.10457491	          0.10457492	          0.10457491	          0.10457491	          0.10457491	          0.10457491	          0.10457493	          0.10459213	          0.10457491	          0.10457491	          0.10457489	          0.10457491	          0.10457491	          0.10457491	
          0.73240551	          1.28898077	          0.67648195	          0.89259340	        -19.04627424	         24.25085636	        -15.65295039	        -12.13232691	          5.99975152	         -2.32073422	         -6.93741323	          0.10457491	          0.10457491	          0.10457488	          0.10457491	          0.10457491	          0.10457493	          0.10457491	          0.10457491	          0.10457491	          0.10457491	          0.10457493	          0.10459750	          0.10457491	          0.10457491	          0.10457489	          0.10457491	          0.10457491	          0.10457491	
          0.74676640	          1.15011742	          0.69184297	          0.89393463	        -18.75683228	         24.29944601	        -17.88630274	        -13.50735121	          4.43995734	         -3.04351130	         -6.69783498	          0.10457491	          0.10457488	          0.10457488	          0.10457491	          0.10457491	          0.10457493	          0.10457491	          0.10457491	          0.10457491	          0.10457491	          0.10457492	          0.10460196	          0.10457491	          0.10457491	          0.10457490	          0.10457491	          0.10457491	          0.10457491	
          0.76112729	          1.05962364	          0.70708103	          0.89535348	        -18.22253043	         24.28263207	        -20.33945017	        -14.97811700	          2.62950599	         -3.59886866	         -6.46135640	          0.10457491	          0.10457487	          0.10457487	          0.10457491	          0.10457491	          0.10457493	          0.10457491	          0.10457491	          0.10457491	          0.10457491	          0.10457491	          0.10460056	          0.10457491	          0.10457491	          0.10457490	          0.10457491	          0.10457491	          0.10457491	
          0.77548818	          0.90971666	          0.72220232	          0.89594729	        -17.48651436	         24.16837327	        -23.02031901	        -16.31421949	          0.52503239	         -4.08715663	         -6.20192631	          0.10457491	          0.10457487	          0.10457487	          0.10457491	          0.10457491	          0.10457493	          0.10457491	          0.10457491	          0.10457491	          0.10457491	          0.10457492	          0.10460223	          0.10457491	          0.10457491	          0.10457490	          0.10457491	          0.10457491	          0.10457491	
          0.78984907	          0.77365911	          0.73720438	          0.89632661	        -16.48633416	         23.95595335	        -25.88523234	        -17.48662272	         -1.69102407	         -4.43553916	         -5.91117243	          0.10457491	          0.10457486	          0.10457488	          0.10457491	          0.10457491	          0.10457493	          0.10457491	          0.10457491	          0.10457491	          0.10457491	          0.10457492	          0.10460406	          0.10457491	          0.10457491	          0.10457490	          0.10457491	          0.10457491	          0.10457491	
          0.80420997	          0.61791066	          0.75200111	          0.89667608	        -15.23815617	         23.70479909	        -28.94774485	        -18.55743587	         -4.05403457	         -4.68934177	         -5.60971576	          0.10457491	          0.10457485	          0.10457488	          0.10457491	          0.10457491	          0.10457493	          0.10457491	          0.10457491	          0.10457491	          0.10457491	          0.10457489	          0.10460589	          0.10457491	          0.10457491	          0.10457490	          0.10457491	          0.10457491	          0.10457491	
          0.81857086	          0.46442154	          0.76653077	          0.89710307	        -13.78476050	         23.44460117	        -32.15040037	        -19.64507851	         -6.14554733	         -4.43111497	         -5.33861163	          0.10457491	          0.10457483	          0.10457488	          0.10457491	          0.10457491	          0.10457493	          0.10457491	          0.10457491	          0.10457491	          0.10457491	          0.10457483	          0.10460567	          0.10457491	          0.10457491	          0.10457491	          0.10457491	          0.10457491	          0.10457491	
          0.83293175	          0.33894596	          0.78077779	          0.89771517	        -12.15776932	         23.11802599	        -35.46148879	        -20.64760290	         -8.23289906	         -3.99481499	         -5.13249093	          0.10457491	          0.10457482	          0.10457488	          0.10457491	          0.10457491	          0.10457493	          0.10457491	          0.10457491	          0.10457491	          0.10457491	          0.10457476	          0.10460339	          0.10457491	          0.10457491	          0.10457491	          0.10457491	          0.10457491	          0.10457491	
          0.84729264	          0.24782619	          0.79475522	          0.89853376	        -10.37890739	         22.67181351	        -38.86673784	        -21.48332783	         -9.88752137	         -3.36967467	         -4.99495919	          0.10457491	          0.10457480	          0.10457488	          0.10457491	          0.10457491	          0.10457493	          0.10457491	          0.10457491	          0.10457491	          0.10457491	          0.10457472	          0.10459911	          0.10457491	          0.10457491	          0.10457491	          0.10457491	          0.10457491	          0.10457491	
          0.86165354	          0.18349090	          0.80848021	          0.89956757	         -8.45889033	         22.08082597	        -42.29980262	        -22.09113819	        -11.33090458	         -2.59093682	         -4.91191941	          0.10457491	          0.10457480	          0.10457489	          0.10457491	          0.10457491	          0.10457493	          0.10457491	          0.10457491	          0.10457491	          0.10457491	          0.10457472	          0.10459462	          0.10457491	          0.10457491	          0.10457491	          0.10457491	          0.10457491	          0.10457491	
          0.87601443	          0.12909370	          0.82194350	          0.90078517	         -6.40530349	         21.36750599	        -45.70291841	        -22.46807070	        -12.27322707	         -1.70318245	         -4.86369765	          0.10457491	          0.10457479	          0.10457489	          0.10457491	          0.10457491	          0.10457493	          0.10457491	          0.10457491	          0.10457491	          0.10457491	          0.10457471	          0.10459026	          0.10457491	          0.10457491	          0.10457491	          0.10457491	          0.10457491	          0.10457491	
          0.89037532	          0.07218197	          0.83514591	          0.90216233	         -4.23668447	         20.56051956	        -48.98030077	        -22.63266735	        -12.87772210	         -0.75370111	         -4.83521653	          0.10457491	          0.10457480	          0.10457490	          0.10457491	          0.10457491	          0.10457492	          0.10457491	          0.10457491	          0.10457491	          0.10457491	          0.10457457	          0.10458674	          0.10457491	          0.10457491	          0.10457491	          0.10457491	          0.10457491	          0.10457491	
